<svg width="48" height="48" viewBox="0 0 48 48" fill="none" xmlns="http://www.w3.org/2000/svg">
<circle cx="24" cy="24" r="24" fill="#151515"/>
<path d="M33.8029 10.6484V35.1532H29.0969L29.0969 10.6484H33.8029Z" fill="#E2DAC6"/>
<path d="M15.6774 29.6707C15.8343 30.4326 16.148 31.0153 16.6186 31.4186C17.1116 31.822 18.0304 32.0237 19.375 32.0237C20.4731 32.0237 21.3246 31.8668 21.9297 31.5531C22.5571 31.2394 22.8709 30.8024 22.8709 30.2421C22.8709 29.8836 22.7476 29.5923 22.5011 29.3682C22.277 29.1441 21.8737 28.9424 21.291 28.7631L15.6774 27.0152C15.655 27.0152 15.5206 26.9815 15.274 26.9143C15.0275 26.8247 14.8483 26.7575 14.7362 26.7126C14.6466 26.6678 14.4673 26.6006 14.1984 26.5109C13.9295 26.3989 13.7166 26.2869 13.5597 26.1748C13.4253 26.0628 13.246 25.9283 13.0219 25.7714C12.7978 25.5922 12.6185 25.4017 12.4841 25.2C12.372 24.9983 12.2488 24.7742 12.1143 24.5277C11.9799 24.2588 11.879 23.9563 11.8118 23.6201C11.7446 23.284 11.7109 22.9254 11.7109 22.5445C11.7109 20.6845 12.372 19.2167 13.6942 18.141C15.0387 17.0429 16.8651 16.4939 19.1733 16.4939C21.6159 16.4939 23.532 17.0429 24.9213 18.141C26.3107 19.2167 27.0278 20.7181 27.0727 22.6453H22.5347C22.5123 21.0094 21.3806 20.1915 19.1397 20.1915C18.3105 20.1915 17.6495 20.3483 17.1564 20.6621C16.6634 20.9534 16.4169 21.3568 16.4169 21.8722C16.4169 22.2307 16.529 22.5108 16.7531 22.7125C16.9772 22.8918 17.4142 23.0823 18.064 23.284L24.0138 24.9983C26.3892 25.693 27.5769 27.2168 27.5769 29.5698C27.5769 30.2645 27.4536 30.948 27.2071 31.6203C26.9606 32.2702 26.5572 32.9201 25.997 33.5699C25.4592 34.2198 24.6412 34.7352 23.5432 35.1162C22.4451 35.5196 21.1453 35.7213 19.6439 35.7213C14.0639 35.7213 11.2067 33.7044 11.0723 29.6707H15.6774Z" fill="#E2DAC6"/>
</svg>
