<svg width="63" height="56" viewBox="0 0 63 56" fill="none" xmlns="http://www.w3.org/2000/svg">
<path d="M42.4471 12L42.4471 40.5114H36.9716L36.9716 12H42.4471Z" fill="#E2DAC6"/>
<path d="M21.3581 34.133C21.5406 35.0195 21.9056 35.6974 22.4532 36.1667C23.0268 36.636 24.0958 36.8707 25.6602 36.8707C26.9378 36.8707 27.9286 36.6882 28.6326 36.3232C29.3627 35.9581 29.7277 35.4497 29.7277 34.7979C29.7277 34.3807 29.5843 34.0417 29.2975 33.781C29.0368 33.5202 28.5674 33.2856 27.8895 33.077L21.3581 31.0433C21.332 31.0433 21.1756 31.0042 20.8888 30.9259C20.602 30.8216 20.3934 30.7434 20.263 30.6913C20.1587 30.6391 19.9501 30.5609 19.6373 30.4566C19.3244 30.3262 19.0767 30.1959 18.8942 30.0655C18.7377 29.9351 18.5291 29.7787 18.2684 29.5962C18.0077 29.3876 17.7991 29.166 17.6426 28.9313C17.5123 28.6967 17.3689 28.4359 17.2124 28.1491C17.056 27.8362 16.9386 27.4842 16.8604 27.0931C16.7822 26.702 16.7431 26.2849 16.7431 25.8416C16.7431 23.6775 17.5123 21.9697 19.0506 20.7182C20.615 19.4406 22.74 18.8018 25.4256 18.8018C28.2676 18.8018 30.4969 19.4406 32.1134 20.7182C33.73 21.9697 34.5643 23.7166 34.6165 25.9589H29.3366C29.3105 24.0556 27.9938 23.1039 25.3865 23.1039C24.4217 23.1039 23.6526 23.2864 23.079 23.6514C22.5053 23.9904 22.2185 24.4597 22.2185 25.0594C22.2185 25.4766 22.3489 25.8025 22.6096 26.0372C22.8704 26.2457 23.3788 26.4674 24.1349 26.702L31.0575 28.6967C33.8212 29.5049 35.2031 31.2779 35.2031 34.0156C35.2031 34.8239 35.0597 35.6192 34.7729 36.4014C34.4861 37.1575 34.0168 37.9136 33.365 38.6698C32.7392 39.4259 31.7875 40.0256 30.5099 40.4688C29.2323 40.9382 27.72 41.1728 25.9731 41.1728C19.4808 41.1728 16.1564 38.8262 16 34.133H21.3581Z" fill="#E2DAC6"/>
<path d="M18 2C12.2055 2.00001 6.75 2.26897 6.75 8.72414V20.8276C6.45 23.2184 4.68 28 0 28C4.68 28 6.45 32.7816 6.75 35.1724V47.2759C6.75 53.731 12.0822 54 18 54" stroke="#E2DAC6" stroke-width="3"/>
<path d="M45 2C50.7945 2.00001 56.25 2.26897 56.25 8.72414V20.8276C56.55 23.2184 58.32 28 63 28C58.32 28 56.55 32.7816 56.25 35.1724V47.2759C56.25 53.731 50.9178 54 45 54" stroke="#E2DAC6" stroke-width="3"/>
</svg>
