<svg width="142" height="142" viewBox="0 0 142 142" fill="none" xmlns="http://www.w3.org/2000/svg">
<circle cx="71" cy="71" r="71" fill="#151515"/>
<path d="M100 31.501L100 103.994H86.0781L86.0781 31.501L100 31.501Z" fill="#E2DAC6"/>
<path d="M46.379 87.7753C46.8431 90.0293 47.7712 91.753 49.1634 92.9463C50.6219 94.1396 53.34 94.7362 57.3177 94.7362C60.5661 94.7362 63.0853 94.2722 64.8753 93.3441C66.7315 92.4159 67.6597 91.1232 67.6597 89.4658C67.6597 88.4051 67.295 87.5433 66.5658 86.8803C65.9028 86.2174 64.7095 85.6207 62.9859 85.0904L46.379 79.9194C46.3127 79.9194 45.915 79.8199 45.1857 79.621C44.4565 79.3558 43.9261 79.157 43.5946 79.0244C43.3295 78.8918 42.7991 78.6929 42.0036 78.4277C41.208 78.0962 40.5782 77.7648 40.1142 77.4333C39.7164 77.1018 39.186 76.7041 38.5231 76.24C37.8601 75.7096 37.3298 75.1461 36.932 74.5495C36.6005 73.9528 36.2359 73.2899 35.8381 72.5606C35.4404 71.7651 35.142 70.8701 34.9432 69.8757C34.7443 68.8813 34.6448 67.8206 34.6448 66.6935C34.6448 61.1911 36.6005 56.8488 40.5119 53.6666C44.4896 50.4182 49.8926 48.7939 56.721 48.7939C63.9471 48.7939 69.6153 50.4182 73.7256 53.6666C77.8359 56.8488 79.9573 61.2905 80.0899 66.9919H66.6652C66.5989 62.1523 63.251 59.7326 56.6216 59.7326C54.1687 59.7326 52.213 60.1967 50.7545 61.1248C49.296 61.9866 48.5667 63.1799 48.5667 64.7047C48.5667 65.7654 48.8982 66.5941 49.5612 67.1908C50.2241 67.7211 51.5169 68.2846 53.4394 68.8813L71.0407 73.9528C78.0679 76.008 81.5816 80.516 81.5816 87.477C81.5816 89.5321 81.2169 91.5541 80.4877 93.5429C79.7585 95.4655 78.5651 97.388 76.9078 99.3106C75.3167 101.233 72.8969 102.758 69.6485 103.885C66.4 105.078 62.555 105.675 58.1132 105.675C41.6058 105.675 33.1532 99.7084 32.7554 87.7753H46.379Z" fill="#E2DAC6"/>
</svg>
