<svg width="100" height="44" viewBox="0 0 100 44" fill="none" xmlns="http://www.w3.org/2000/svg">
<path d="M24.761 22.2329V38.9999H21.541V22.2329H24.761Z" fill="#E2DAC6"/>
<path d="M31.9552 26.3729C33.9025 26.3729 35.4128 26.9632 36.4862 28.1439C37.5748 29.3092 38.1192 30.9422 38.1192 33.0429C38.1192 35.0362 37.5672 36.6156 36.4632 37.7809C35.3592 38.9462 33.8642 39.5289 31.9782 39.5289C30.0615 39.5289 28.5588 38.9462 27.4702 37.7809C26.3815 36.6002 25.8372 34.9902 25.8372 32.9509C25.8372 30.9116 26.3815 29.3092 27.4702 28.1439C28.5588 26.9632 30.0538 26.3729 31.9552 26.3729ZM31.9782 28.9719C31.1042 28.9719 30.3988 29.3399 29.8622 30.0759C29.3255 30.8119 29.0572 31.7702 29.0572 32.9509C29.0572 34.1316 29.3255 35.0899 29.8622 35.8259C30.3988 36.5619 31.1042 36.9299 31.9782 36.9299C32.8368 36.9299 33.5345 36.5696 34.0712 35.8489C34.6232 35.1129 34.8992 34.1622 34.8992 32.9969C34.8992 31.7702 34.6308 30.7966 34.0942 30.0759C33.5728 29.3399 32.8675 28.9719 31.9782 28.9719Z" fill="#E2DAC6"/>
<path d="M44.8711 26.3729C46.8184 26.3729 48.3288 26.9632 49.4021 28.1439C50.4908 29.3092 51.0351 30.9422 51.0351 33.0429C51.0351 35.0362 50.4831 36.6156 49.3791 37.7809C48.2751 38.9462 46.7801 39.5289 44.8941 39.5289C42.9774 39.5289 41.4748 38.9462 40.3861 37.7809C39.2974 36.6002 38.7531 34.9902 38.7531 32.9509C38.7531 30.9116 39.2974 29.3092 40.3861 28.1439C41.4748 26.9632 42.9698 26.3729 44.8711 26.3729ZM44.8941 28.9719C44.0201 28.9719 43.3148 29.3399 42.7781 30.0759C42.2414 30.8119 41.9731 31.7702 41.9731 32.9509C41.9731 34.1316 42.2414 35.0899 42.7781 35.8259C43.3148 36.5619 44.0201 36.9299 44.8941 36.9299C45.7528 36.9299 46.4504 36.5696 46.9871 35.8489C47.5391 35.1129 47.8151 34.1622 47.8151 32.9969C47.8151 31.7702 47.5468 30.7966 47.0101 30.0759C46.4888 29.3399 45.7834 28.9719 44.8941 28.9719Z" fill="#E2DAC6"/>
<path d="M57.5624 26.8329V28.9719H55.7684V35.7339C55.7684 36.2859 55.8374 36.6539 55.9754 36.8379C56.1134 37.0066 56.3971 37.0909 56.8264 37.0909C56.9951 37.0909 57.2404 37.0679 57.5624 37.0219V39.2759C57.0411 39.4446 56.4201 39.5289 55.6994 39.5289C53.5988 39.5289 52.5484 38.5552 52.5484 36.6079V28.9719H50.9614V26.8329H52.5484V23.4979H55.7684V26.8329H57.5624Z" fill="#E2DAC6"/>
<path d="M61.57 39.5289C60.4353 39.5289 59.523 39.1916 58.833 38.5169C58.143 37.8269 57.798 36.9222 57.798 35.8029C57.798 33.6102 59.017 32.3069 61.455 31.8929L62.743 31.6629C62.7737 31.6629 62.927 31.6476 63.203 31.6169C63.479 31.5709 63.6553 31.5402 63.732 31.5249C63.8087 31.4942 63.9543 31.4559 64.169 31.4099C64.399 31.3639 64.56 31.3102 64.652 31.2489C64.744 31.1876 64.8513 31.1109 64.974 31.0189C65.112 30.9116 65.204 30.7966 65.25 30.6739C65.296 30.5359 65.319 30.3826 65.319 30.2139C65.319 29.3859 64.698 28.9719 63.456 28.9719C62.6587 28.9719 62.099 29.0946 61.777 29.3399C61.455 29.5852 61.2557 30.0299 61.179 30.6739H58.074C58.2733 27.8066 60.0443 26.3729 63.387 26.3729C66.7757 26.3729 68.47 27.6456 68.47 30.1909V37.0909C68.47 37.6582 68.7153 38.1642 69.206 38.6089V38.9999H65.71C65.4647 38.6932 65.342 38.2792 65.342 37.7579C64.2073 38.9386 62.95 39.5289 61.57 39.5289ZM65.319 34.0089V33.1349C65.0277 33.2729 64.5753 33.4032 63.962 33.5259L62.858 33.7329C62.1833 33.8709 61.708 34.0702 61.432 34.3309C61.156 34.5916 61.018 34.9596 61.018 35.4349C61.018 35.8949 61.1713 36.2629 61.478 36.5389C61.8 36.7996 62.2293 36.9299 62.766 36.9299C63.5787 36.9299 64.2073 36.6769 64.652 36.1709C65.0967 35.6649 65.319 34.9442 65.319 34.0089Z" fill="#E2DAC6"/>
<path d="M77.9004 31.4099C77.9004 29.8766 77.241 29.1099 75.9224 29.1099C75.2017 29.1099 74.6037 29.3399 74.1284 29.7999C73.6684 30.2599 73.4384 30.8426 73.4384 31.5479V38.9999H70.2184V22.2329H73.4384V28.3739C74.3277 27.0399 75.539 26.3729 77.0724 26.3729C77.563 26.3729 78.023 26.4419 78.4524 26.5799C78.897 26.7026 79.3264 26.9172 79.7404 27.2239C80.1697 27.5152 80.507 27.9599 80.7524 28.5579C80.9977 29.1559 81.1204 29.8612 81.1204 30.6739V38.9999H77.9004V31.4099Z" fill="#E2DAC6"/>
<path d="M23.818 17.3889C23.9253 17.9102 24.14 18.3089 24.462 18.5849C24.7993 18.8609 25.428 18.9989 26.348 18.9989C27.0993 18.9989 27.682 18.8916 28.096 18.6769C28.5253 18.4622 28.74 18.1632 28.74 17.7799C28.74 17.5346 28.6557 17.3352 28.487 17.1819C28.3337 17.0286 28.0577 16.8906 27.659 16.7679L23.818 15.5719C23.8027 15.5719 23.7107 15.5489 23.542 15.5029C23.3733 15.4416 23.2507 15.3956 23.174 15.3649C23.1127 15.3342 22.99 15.2882 22.806 15.2269C22.622 15.1502 22.4763 15.0736 22.369 14.9969C22.277 14.9202 22.1543 14.8282 22.001 14.7209C21.8477 14.5982 21.725 14.4679 21.633 14.3299C21.5563 14.1919 21.472 14.0386 21.38 13.8699C21.288 13.6859 21.219 13.4789 21.173 13.2489C21.127 13.0189 21.104 12.7736 21.104 12.5129C21.104 11.2402 21.5563 10.2359 22.461 9.49991C23.381 8.74858 24.6307 8.37291 26.21 8.37291C27.8813 8.37291 29.1923 8.74858 30.143 9.49991C31.0937 10.2359 31.5843 11.2632 31.615 12.5819H28.51C28.4947 11.4626 27.7203 10.9029 26.187 10.9029C25.6197 10.9029 25.1673 11.0102 24.83 11.2249C24.4927 11.4242 24.324 11.7002 24.324 12.0529C24.324 12.2982 24.4007 12.4899 24.554 12.6279C24.7073 12.7506 25.0063 12.8809 25.451 13.0189L29.522 14.1919C31.1473 14.6672 31.96 15.7099 31.96 17.3199C31.96 17.7952 31.8757 18.2629 31.707 18.7229C31.5383 19.1676 31.2623 19.6122 30.879 20.0569C30.511 20.5016 29.9513 20.8542 29.2 21.1149C28.4487 21.3909 27.5593 21.5289 26.532 21.5289C22.714 21.5289 20.759 20.1489 20.667 17.3889H23.818Z" fill="#E2DAC6"/>
<path d="M36.0517 21.5289C34.917 21.5289 34.0047 21.1916 33.3147 20.5169C32.6247 19.8269 32.2797 18.9222 32.2797 17.8029C32.2797 15.6102 33.4987 14.3069 35.9367 13.8929L37.2247 13.6629C37.2553 13.6629 37.4087 13.6476 37.6847 13.6169C37.9607 13.5709 38.137 13.5402 38.2137 13.5249C38.2903 13.4942 38.436 13.4559 38.6507 13.4099C38.8807 13.3639 39.0417 13.3102 39.1337 13.2489C39.2257 13.1876 39.333 13.1109 39.4557 13.0189C39.5937 12.9116 39.6857 12.7966 39.7317 12.6739C39.7777 12.5359 39.8007 12.3826 39.8007 12.2139C39.8007 11.3859 39.1797 10.9719 37.9377 10.9719C37.1403 10.9719 36.5807 11.0946 36.2587 11.3399C35.9367 11.5852 35.7373 12.0299 35.6607 12.6739H32.5557C32.755 9.80658 34.526 8.37291 37.8687 8.37291C41.2573 8.37291 42.9517 9.64558 42.9517 12.1909V19.0909C42.9517 19.6582 43.197 20.1642 43.6877 20.6089V20.9999H40.1917C39.9463 20.6932 39.8237 20.2792 39.8237 19.7579C38.689 20.9386 37.4317 21.5289 36.0517 21.5289ZM39.8007 16.0089V15.1349C39.5093 15.2729 39.057 15.4032 38.4437 15.5259L37.3397 15.7329C36.665 15.8709 36.1897 16.0702 35.9137 16.3309C35.6377 16.5916 35.4997 16.9596 35.4997 17.4349C35.4997 17.8949 35.653 18.2629 35.9597 18.5389C36.2817 18.7996 36.711 18.9299 37.2477 18.9299C38.0603 18.9299 38.689 18.6769 39.1337 18.1709C39.5783 17.6649 39.8007 16.9442 39.8007 16.0089Z" fill="#E2DAC6"/>
<path d="M47.92 4.23291V20.9999H44.7V4.23291H47.92Z" fill="#E2DAC6"/>
<path d="M54.6718 8.37291C55.2084 8.37291 55.7298 8.43424 56.2358 8.55691C56.7418 8.67958 57.2554 8.90191 57.7768 9.22391C58.3134 9.54591 58.7734 9.95991 59.1568 10.4659C59.5554 10.9566 59.8774 11.6159 60.1228 12.4439C60.3681 13.2566 60.4908 14.1919 60.4908 15.2499C60.4908 15.4339 60.4831 15.6179 60.4678 15.8019H52.1418C52.1571 16.2772 52.1954 16.6912 52.2568 17.0439C52.3334 17.3812 52.4561 17.7186 52.6248 18.0559C52.8088 18.3779 53.0694 18.6309 53.4068 18.8149C53.7594 18.9836 54.1964 19.0679 54.7178 19.0679C55.9444 19.0679 56.7648 18.5466 57.1788 17.5039H60.3528C60.0001 18.7306 59.3024 19.7119 58.2598 20.4479C57.2171 21.1686 55.9981 21.5289 54.6028 21.5289C52.8394 21.5289 51.4518 20.9616 50.4398 19.8269C49.4278 18.6769 48.9218 17.1052 48.9218 15.1119C48.9218 13.0266 49.4354 11.3859 50.4628 10.1899C51.4901 8.97858 52.8931 8.37291 54.6718 8.37291ZM57.1328 13.6629C57.0561 12.7582 56.8031 12.0606 56.3738 11.5699C55.9598 11.0792 55.3771 10.8339 54.6258 10.8339C53.2151 10.8339 52.4024 11.7769 52.1878 13.6629H57.1328Z" fill="#E2DAC6"/>
<path d="M69.2744 13.4099C69.2744 11.8766 68.6151 11.1099 67.2964 11.1099C66.5758 11.1099 65.9778 11.3399 65.5024 11.7999C65.0424 12.2599 64.8124 12.8426 64.8124 13.5479V20.9999H61.5924V4.23291H64.8124V10.3739C65.7018 9.03991 66.9131 8.37291 68.4464 8.37291C68.9371 8.37291 69.3971 8.44191 69.8264 8.57991C70.2711 8.70258 70.7004 8.91724 71.1144 9.22391C71.5438 9.51524 71.8811 9.95991 72.1264 10.5579C72.3718 11.1559 72.4944 11.8612 72.4944 12.6739V20.9999H69.2744V13.4099Z" fill="#E2DAC6"/>
<path d="M14 2C9.49315 2.00001 5.25 2.2069 5.25 7.17242V16.4828C5.01667 18.3218 3.64 22 0 22C3.64 22 5.01667 25.6782 5.25 27.5172V36.8276C5.25 41.7931 9.39726 42 14 42" stroke="#E2DAC6" stroke-width="3"/>
<path d="M86 2C90.5068 2.00001 94.75 2.2069 94.75 7.17242V16.4828C94.9833 18.3218 96.36 22 100 22C96.36 22 94.9833 25.6782 94.75 27.5172V36.8276C94.75 41.7931 90.6027 42 86 42" stroke="#E2DAC6" stroke-width="3"/>
</svg>
